<svg width="78" height="78" viewBox="0 0 78 78" fill="none" xmlns="http://www.w3.org/2000/svg">
<circle cx="39" cy="39" r="39" fill="#FF9344"/>
<path d="M29.0713 58.4493C29.1558 58.389 29.2342 58.3225 29.3125 58.2501L35.1695 52.8636L31.2366 49.6909L29.0713 58.4493Z" fill="#2E2E2E"/>
<path d="M21.6914 42.6584L26.2816 55.7721L28.6098 46.3326C28.6822 46.055 28.8208 45.7958 29.0201 45.5844L41.1023 32.7427L21.6914 42.6584Z" fill="#2E2E2E"/>
<path d="M58.9525 18.5127C58.886 18.4281 58.7051 18.416 58.6025 18.416C58.4338 18.416 58.1499 18.4462 57.74 18.6031L9.25 37.1152L19.4434 40.0346L48.1913 25.3473C48.921 24.9734 49.8078 25.1786 50.3026 25.8359C50.7912 26.4873 50.7431 27.398 50.1821 27.9891L32.7014 46.5671L38.7876 51.465C38.7876 51.465 38.7934 51.465 38.7934 51.4709L49.0179 59.7043C49.422 60.012 49.808 60.1808 50.1219 60.1808C50.7491 60.1808 50.9906 59.3062 51.0688 58.9323L59.0189 19.6889C59.1575 18.9889 59.0428 18.6212 58.9523 18.5125L58.9525 18.5127Z" fill="#2E2E2E"/>
</svg>
