<svg width="78" height="78" viewBox="0 0 78 78" fill="none" xmlns="http://www.w3.org/2000/svg">
<circle cx="39" cy="39" r="39" fill="#2E2E2E"/>
<path d="M39 0C17.4532 0 0 17.4532 0 39C0 60.5468 17.4532 78 39 78C60.5468 78 78 60.5468 78 39C78 17.4532 60.5468 0 39 0ZM39 11.7001C45.4545 11.7001 50.7001 16.9456 50.7001 23.4003C50.7001 29.8743 45.4546 35.1004 39 35.1004C32.5455 35.0999 27.2999 29.8743 27.2999 23.4003C27.2999 16.9458 32.5454 11.7001 39 11.7001V11.7001ZM39 67.0801C29.2305 67.0801 20.6509 62.0883 15.6 54.5221C15.6974 46.7806 31.2191 42.5099 39 42.5099C46.7804 42.5099 62.2827 46.7806 62.4 54.5221C57.3492 62.0883 48.7692 67.0801 39 67.0801Z" fill="#FF9344"/>
</svg>
