<svg width="222" height="75" viewBox="0 0 222 75" fill="none" xmlns="http://www.w3.org/2000/svg">
<rect width="222" height="75" rx="37.5" fill="#2E2E2E"/>
<path d="M84.16 46.6617H80.6385H78.6821C78.6169 46.6617 78.4865 46.6617 78.4212 46.5965C77.5735 46.3356 77.3126 46.14 77.117 45.2922C77.0518 45.227 77.0518 45.0966 77.0518 45.0314V43.075V39.5535V37.6623C77.0518 37.5319 77.0518 37.4667 77.117 37.3362C77.3126 36.4885 77.5735 36.2928 78.4212 36.032C78.4865 35.9668 78.6169 35.9668 78.6821 35.9668H80.6385H84.16H87.7467H89.6379C89.7031 35.9668 89.8335 35.9668 89.8987 36.032C90.7465 36.2928 91.0074 36.4885 91.2682 37.3362C91.2682 37.4667 91.2682 37.5319 91.2682 37.6623V39.5535V43.075V45.0314C91.2682 45.0966 91.2682 45.227 91.2682 45.2922C91.0074 46.14 90.7465 46.3356 89.8987 46.5965C89.8335 46.6617 89.7031 46.6617 89.6379 46.6617H87.7467H84.16ZM98.3764 45.2922C98.1156 46.14 97.8547 46.3356 97.0722 46.5965C96.9417 46.6617 96.8765 46.6617 96.7461 46.6617H96.4852C96.42 46.6617 96.2896 46.6617 96.2244 46.5965C95.3766 46.3356 95.1158 46.14 94.8549 45.2922C94.8549 45.227 94.8549 45.0966 94.8549 45.0314V43.075V39.5535V37.6623C94.8549 37.5319 94.8549 37.4667 94.8549 37.3362C95.1158 36.4885 95.3766 36.2928 96.2244 36.032C96.2896 35.9668 96.42 35.9668 96.4852 35.9668H97.333C97.9199 35.9668 98.3764 35.5103 98.3764 34.9234V32.4453V28.8586V26.3153C98.3764 25.7935 97.9199 25.3371 97.333 25.3371H96.4852C96.42 25.3371 96.2896 25.2718 96.2244 25.2718C95.3766 25.011 95.1158 24.8154 94.8549 23.9676C94.8549 23.8372 94.8549 23.7719 94.8549 23.6415V22.7938C94.8549 22.2068 94.3984 21.7503 93.8115 21.7503H91.2682H87.7467H84.16H81.6167C81.095 21.7503 80.6385 22.2068 80.6385 22.7938V23.6415C80.6385 23.7719 80.5733 23.8372 80.5733 23.9676C80.3124 24.8154 80.1168 25.011 79.269 25.2718C79.1386 25.2718 79.0734 25.3371 78.943 25.3371H78.0952C77.5083 25.3371 77.0518 25.7935 77.0518 26.3153V27.8151C77.0518 28.4021 77.5083 28.8586 78.0952 28.8586H79.5951C80.1168 28.8586 80.6385 28.4021 80.6385 27.8151V26.9674C80.6385 26.837 80.6385 26.7717 80.6385 26.6413C80.8993 25.8588 81.1602 25.5979 81.9427 25.3371C82.0732 25.3371 82.1384 25.3371 82.2688 25.3371H84.16H87.7467H91.2682H93.1594C93.2898 25.3371 93.355 25.3371 93.4854 25.3371C94.3332 25.5979 94.5289 25.8588 94.7897 26.6413C94.8549 26.7717 94.8549 26.837 94.8549 26.9674V28.8586V32.4453V34.3364C94.8549 34.4017 94.8549 34.5321 94.7897 34.5973C94.5289 35.4451 94.3332 35.7059 93.4854 35.9668C93.355 35.9668 93.2898 35.9668 93.1594 35.9668H92.9637C92.8333 35.9668 92.7681 35.9668 92.6377 35.9668C91.7899 35.7059 91.5943 35.4451 91.3334 34.5973C91.2682 34.5321 91.2682 34.4017 91.2682 34.3364V33.4887C91.2682 32.9018 90.8117 32.4453 90.2248 32.4453H87.7467H84.16H80.6385H78.0952C77.5083 32.4453 77.0518 32.9018 77.0518 33.4887V34.3364C77.0518 34.4017 77.0518 34.5321 76.9866 34.5973C76.7909 35.4451 76.5301 35.7059 75.6823 35.9668C75.6171 35.9668 75.4867 35.9668 75.4215 35.9668H74.5085C73.9868 35.9668 73.5303 36.4233 73.5303 37.0102V39.5535V43.075V45.6183C73.5303 46.2052 73.9868 46.6617 74.5085 46.6617H75.5519C76.5301 46.9226 76.7257 47.1182 76.9866 48.0312C77.0518 48.0964 77.0518 48.2268 77.0518 48.292V49.205C77.0518 49.7267 77.5083 50.1832 78.0952 50.1832H80.6385H84.16H87.7467H90.2248C90.8117 50.1832 91.2682 49.7267 91.2682 49.205V48.292C91.2682 48.2268 91.2682 48.0964 91.3334 48.0312C91.5943 47.1182 91.8551 46.9226 92.7681 46.6617H93.355C94.268 46.9226 94.5289 47.1182 94.7897 48.0312C94.8549 48.0964 94.8549 48.2268 94.8549 48.292V49.205C94.8549 49.7267 95.3114 50.1832 95.8983 50.1832H97.333C97.9199 50.1832 98.3764 49.7267 98.3764 49.205V48.292C98.3764 48.2268 98.4416 48.0964 98.4416 48.0312C98.7025 47.1182 98.9633 46.9226 99.8763 46.6617H100.92C101.507 46.6617 101.963 46.2052 101.963 45.6183V44.1184C101.963 43.5315 101.507 43.075 100.92 43.075H99.4198C98.8329 43.075 98.3764 43.5315 98.3764 44.1184V45.0314C98.3764 45.0966 98.3764 45.227 98.3764 45.2922Z" fill="#FF9344"/>
<path d="M130.091 33.8147C130.091 33.9452 130.091 34.0104 130.091 34.1408C129.83 34.9886 129.57 35.1842 128.591 35.4451H127.613C127.026 35.4451 126.57 35.9668 126.57 36.4885V39.0318V42.6185V44.5097C126.57 44.5749 126.57 44.7053 126.505 44.7705C126.244 45.6183 126.048 45.8791 125.2 46.0748C125.135 46.14 125.005 46.14 124.874 46.14H122.983H119.462H115.875H113.984C113.853 46.14 113.788 46.14 113.658 46.0748C112.875 45.8791 112.614 45.6183 112.353 44.7705C112.353 44.7053 112.353 44.5749 112.353 44.5097V42.6185V39.0318V37.1406C112.353 37.0102 112.353 36.945 112.353 36.8145C112.614 36.032 112.875 35.7711 113.658 35.5103C113.788 35.5103 113.853 35.4451 113.984 35.4451H114.831C115.418 35.4451 115.875 34.9886 115.875 34.4669V31.9236V28.3369V26.4457C115.875 26.3805 115.875 26.25 115.94 26.1848C116.201 25.3371 116.397 25.0762 117.244 24.8154C117.31 24.8154 117.44 24.8154 117.505 24.8154H119.462H122.983H124.874C125.005 24.8154 125.135 24.8154 125.2 24.8154C126.048 25.0762 126.244 25.3371 126.505 26.1848C126.57 26.25 126.57 26.3805 126.57 26.4457V27.3587C126.57 27.8804 127.026 28.3369 127.613 28.3369H128.461C128.591 28.3369 128.657 28.4021 128.787 28.4021C129.57 28.6629 129.83 28.8586 130.091 29.7063C130.091 29.8368 130.091 29.902 130.091 30.0324V31.9236V33.8147ZM131.591 28.3369C130.678 28.076 130.417 27.8804 130.157 26.9674C130.157 26.9022 130.091 26.837 130.091 26.7065V25.8588C130.091 25.2718 129.635 24.8154 129.048 24.8154H128.07C127.092 24.5545 126.831 24.2936 126.57 23.4459C126.57 23.3807 126.57 23.2502 126.57 23.1198V22.272C126.57 21.6851 126.113 21.2286 125.526 21.2286H122.983H119.462H116.918C116.331 21.2286 115.875 21.6851 115.875 22.272V23.1198C115.875 23.2502 115.875 23.3807 115.81 23.4459C115.549 24.2936 115.353 24.5545 114.375 24.8154H113.984C113.853 24.8154 113.788 24.8154 113.658 24.7501C112.875 24.4893 112.614 24.2936 112.353 23.4459C112.353 23.3807 112.353 23.2502 112.353 23.185V22.272C112.353 21.6851 111.832 21.2286 111.31 21.2286H109.81C109.223 21.2286 108.767 21.6851 108.767 22.272V23.7719C108.767 24.3589 109.223 24.8154 109.81 24.8154H110.853C110.853 24.8154 110.853 24.8154 110.788 24.8154C111.766 25.0762 112.027 25.2718 112.288 26.1848C112.288 26.25 112.353 26.3805 112.353 26.4457V28.3369V31.9236V33.8147C112.353 33.9452 112.288 34.0104 112.288 34.1408C112.027 34.9886 111.766 35.1842 110.788 35.4451C110.853 35.4451 110.853 35.4451 110.853 35.4451H109.81C109.223 35.4451 108.767 35.9668 108.767 36.4885V39.0318V40.923C108.767 41.0534 108.767 41.1186 108.701 41.249C108.506 42.0316 108.245 42.2924 107.397 42.5533C107.332 42.5533 107.202 42.6185 107.136 42.6185H106.223C105.702 42.6185 105.245 43.075 105.245 43.5967V46.14V49.7267V53.2482V56.8349V60.3564V63.9431V66.4864C105.245 67.0082 105.702 67.4646 106.223 67.4646H107.723C108.31 67.4646 108.767 67.0082 108.767 66.4864V63.9431V60.3564V56.8349V53.2482V49.7267V47.7703C108.767 47.7051 108.767 47.5747 108.832 47.5095C109.093 46.5965 109.354 46.4008 110.267 46.14H110.853H110.788C111.766 46.4008 112.027 46.5965 112.288 47.5095C112.288 47.5747 112.353 47.7051 112.353 47.7703V48.6833C112.353 49.2702 112.81 49.7267 113.332 49.7267H115.875H119.462H122.983H125.526C126.113 49.7267 126.57 49.2702 126.57 48.6833V47.7703C126.57 47.7051 126.57 47.5747 126.57 47.5095C126.831 46.5965 127.092 46.4008 128.07 46.14H129.048C129.635 46.14 130.091 45.6835 130.091 45.0966V42.6185V39.0318V37.1406C130.091 37.0102 130.157 36.945 130.157 36.8145C130.417 36.032 130.613 35.7711 131.461 35.5103C131.591 35.5103 131.656 35.4451 131.787 35.4451H132.635C133.222 35.4451 133.678 34.9886 133.678 34.4669V31.9236V29.3803C133.678 28.7933 133.222 28.3369 132.635 28.3369H131.591Z" fill="#FF9344"/>
<path d="M33.5869 48.1617L33.5869 49.0095C33.5869 49.5964 34.0433 50.0529 34.6303 50.0529L37.1736 50.0529L40.6951 50.0529L43.2384 50.0529C43.8253 50.0529 44.2818 49.5964 44.2818 49.0095L44.2818 48.1617C44.2818 48.0313 44.2818 47.9661 44.2818 47.8357C44.5426 47.0531 44.8035 46.7923 45.6513 46.5314C45.7165 46.5314 45.7817 46.4662 45.9121 46.4662L46.173 46.4662C46.2382 46.4662 46.3686 46.5314 46.4338 46.5314C47.2816 46.7923 47.5424 47.0531 47.8033 47.8357C47.8033 47.9661 47.8033 48.0313 47.8033 48.1617L47.8033 49.0095C47.8033 49.5964 48.2598 50.0529 48.8467 50.0529L51.39 50.0529L54.9115 50.0529L57.4548 50.0529C58.0417 50.0529 58.4982 49.5964 58.4982 49.0095L58.4982 48.1617C58.4982 48.0313 58.4982 47.9661 58.5634 47.8357C58.7591 47.0531 59.0199 46.7923 59.8677 46.5314C59.9329 46.5314 60.0633 46.4662 60.1285 46.4662L60.3894 46.4662C60.5198 46.4662 60.585 46.5314 60.7155 46.5314C61.498 46.7923 61.7589 47.0531 62.0197 47.8357C62.0197 47.9661 62.0197 48.0313 62.0197 48.1617L62.0197 49.0095C62.0197 49.5964 62.5414 50.0529 63.0631 50.0529L64.563 50.0529C65.1499 50.0529 65.6064 49.5964 65.6064 49.0095L65.6064 47.5096C65.6064 46.9879 65.1499 46.4662 64.563 46.4662L63.7153 46.4662C63.5848 46.4662 63.5196 46.4662 63.3892 46.4662C62.5414 46.2054 62.3458 45.9445 62.0849 45.1619C62.0849 45.0315 62.0197 44.9663 62.0197 44.8359L62.0197 42.9447L62.0197 39.358L62.0197 37.4668C62.0197 37.4016 62.0849 37.2712 62.0849 37.206C62.3458 36.3582 62.5414 36.0973 63.3892 35.8365C63.5196 35.8365 63.5848 35.8365 63.7153 35.8365L64.563 35.8365C65.1499 35.8365 65.6064 35.38 65.6064 34.7931L65.6064 32.2498L65.6064 30.3586C65.6064 30.2934 65.6064 30.163 65.6716 30.0977C65.8673 29.25 66.1281 28.9891 66.9759 28.7283C67.0411 28.7283 67.1715 28.7283 67.2368 28.7283L68.1497 28.7283C68.6714 28.7283 69.1279 28.2718 69.1279 27.6849L69.1279 25.1416L69.1279 22.5982C69.1279 22.0765 68.6714 21.6201 68.1497 21.6201L66.6498 21.6201C66.0629 21.6201 65.6064 22.0765 65.6064 22.5982L65.6064 25.1416L65.6064 27.0327C65.6064 27.1632 65.6064 27.2284 65.5412 27.3588C65.3456 28.2066 65.0847 28.4022 64.237 28.6631C64.1717 28.6631 64.0413 28.7283 63.9761 28.7283L63.0631 28.7283C62.5414 28.7283 62.0197 29.1848 62.0197 29.7717L62.0197 32.2498L62.0197 34.1409C62.0197 34.2714 62.0197 34.3366 62.0197 34.467C61.7589 35.3148 61.498 35.5104 60.7155 35.7713C60.585 35.8365 60.5198 35.8365 60.3894 35.8365L59.5416 35.8365C58.9547 35.8365 58.4982 36.293 58.4982 36.8799L58.4982 39.358L58.4982 42.9447L58.4982 44.8359C58.4982 44.9663 58.4982 45.0315 58.433 45.1619C58.1721 45.9445 57.9765 46.2054 57.1287 46.4662C57.0635 46.4662 56.9331 46.4662 56.8679 46.4662L54.9115 46.4662L51.39 46.4662L49.4988 46.4662C49.3684 46.4662 49.3032 46.4662 49.1728 46.4662C48.325 46.2054 48.1293 45.9445 47.8685 45.1619C47.8033 45.0315 47.8033 44.9663 47.8033 44.8359L47.8033 42.9447L47.8033 39.358L47.8033 37.4668C47.8033 37.4016 47.8033 37.2712 47.8685 37.206C48.1293 36.293 48.3902 36.0973 49.3032 35.8365L50.3466 35.8365C50.9335 35.8365 51.39 35.38 51.39 34.7931L51.39 32.2498L51.39 30.3586C51.39 30.2934 51.39 30.163 51.39 30.0977C51.6508 29.25 51.9117 28.9891 52.7595 28.7283C52.8247 28.7283 52.9551 28.7283 53.0203 28.7283L53.8681 28.7283C54.455 28.7283 54.9115 28.2718 54.9115 27.6849L54.9115 25.1416L54.9115 22.5982C54.9115 22.0765 54.455 21.6201 53.8681 21.6201L52.4334 21.6201C51.8465 21.6201 51.39 22.0765 51.39 22.5982L51.39 25.1416L51.39 27.0327C51.39 27.1632 51.39 27.2284 51.3248 27.3588C51.0639 28.2066 50.8683 28.4022 50.0205 28.6631C49.8901 28.6631 49.8249 28.7283 49.6945 28.7283L48.8467 28.7283C48.2598 28.7283 47.8033 29.1848 47.8033 29.7717L47.8033 32.2498L47.8033 34.1409C47.8033 34.2714 47.8033 34.4018 47.8033 34.467C47.5424 35.3148 47.2816 35.5104 46.4338 35.7713C46.3686 35.8365 46.2382 35.8365 46.173 35.8365L45.3252 35.8365C44.7383 35.8365 44.2818 36.293 44.2818 36.8799L44.2818 39.358L44.2818 42.9447L44.2818 44.8359C44.2818 44.9663 44.2166 45.0315 44.2166 45.1619C43.9557 45.9445 43.7601 46.2054 42.9123 46.4662C42.7819 46.4662 42.7167 46.4662 42.5862 46.4662L40.6951 46.4662L37.1736 46.4662L35.2172 46.4662C35.152 46.4662 35.0215 46.4662 34.9563 46.4662C34.1086 46.2054 33.8477 45.9445 33.6521 45.1619C33.5869 45.0315 33.5869 44.9663 33.5869 44.8359L33.5869 42.9447L33.5868 39.358L33.5868 37.4668C33.5868 37.4016 33.5868 37.2712 33.6521 37.206C33.9129 36.293 34.1738 36.0973 35.0867 35.8365L36.1302 35.8365C36.6519 35.8365 37.1736 35.38 37.1736 34.7931L37.1736 32.2498L37.1736 30.3586C37.1736 30.2934 37.1736 30.163 37.1736 30.0977C37.4344 29.1848 37.6953 28.9891 38.6735 28.7283L39.6517 28.7283C40.2386 28.7283 40.6951 28.2718 40.6951 27.6849L40.6951 25.1416L40.6951 22.5983C40.6951 22.0765 40.2386 21.6201 39.6517 21.6201L38.1518 21.6201C37.6301 21.6201 37.1736 22.0765 37.1736 22.5983L37.1736 25.1416L37.1736 27.0327C37.1736 27.1632 37.1083 27.2284 37.1083 27.3588C36.8475 28.2066 36.6519 28.4022 35.8041 28.6631C35.6737 28.6631 35.6085 28.7283 35.478 28.7283L34.6303 28.7283C34.0433 28.7283 33.5868 29.1848 33.5868 29.7717L33.5868 32.2498L33.5868 34.141C33.5868 34.2714 33.5868 34.4018 33.5216 34.467C33.326 35.3148 33.0651 35.5104 32.2174 35.7713C32.1522 35.8365 32.0217 35.8365 31.9565 35.8365L31.0435 35.8365C30.5218 35.8365 30.0001 36.293 30.0001 36.8799L30.0001 39.358L30.0001 42.9447L30.0001 45.488C30.0001 46.0097 30.5218 46.4662 31.0435 46.4662L31.9565 46.4662C32.0217 46.4662 32.1522 46.5314 32.2174 46.5314C33.0651 46.7923 33.326 47.0531 33.5216 47.8357C33.5869 47.9661 33.5869 48.0313 33.5869 48.1617Z" fill="#FF9344"/>
<path d="M161.958 25.0765V26.9676C161.958 27.0328 161.958 27.1633 161.958 27.2285C161.698 28.1415 161.437 28.3371 160.459 28.598H159.48C158.893 28.598 158.437 29.0545 158.437 29.6414V32.1847V34.0759C158.437 34.1411 158.437 34.2715 158.372 34.3367C158.111 35.1845 157.915 35.4453 157.067 35.7062C156.937 35.7062 156.872 35.7062 156.741 35.7062H155.894C155.307 35.7062 154.85 36.1627 154.85 36.7496V39.2929V42.8144V44.7708C154.85 44.836 154.85 44.9664 154.85 45.0316C154.589 45.8794 154.329 46.1403 153.481 46.3359C153.416 46.4011 153.285 46.4011 153.22 46.4011H151.329H147.742H144.221H142.264C142.199 46.4011 142.068 46.4011 142.003 46.3359C141.156 46.1403 140.895 45.8794 140.699 45.0316C140.634 44.9664 140.634 44.836 140.634 44.7708V42.8144V40.9232C140.634 40.858 140.634 40.7276 140.699 40.6624C140.96 39.7494 141.221 39.5537 142.134 39.2929H143.177C143.764 39.2929 144.221 38.8364 144.221 38.2495V35.7062V32.1847V30.2935C144.221 30.1631 144.221 30.0979 144.221 29.9674C144.481 29.1197 144.742 28.924 145.525 28.6632C145.655 28.598 145.72 28.598 145.851 28.598H146.699C147.286 28.598 147.742 28.1415 147.742 27.5546V25.0765V22.5332C147.742 21.9462 147.286 21.4897 146.699 21.4897H145.199C144.677 21.4897 144.221 21.9462 144.221 22.5332V25.0765V26.9676C144.221 27.0328 144.155 27.1633 144.155 27.2285C143.894 28.1415 143.634 28.3371 142.655 28.598C142.721 28.598 142.721 28.598 142.721 28.598H141.677C141.09 28.598 140.634 29.0545 140.634 29.6414V32.1847V35.7062V37.6626C140.634 37.7278 140.634 37.8582 140.569 37.9234C140.373 38.7712 140.112 38.9668 139.264 39.2277C139.199 39.2929 139.069 39.2929 139.003 39.2929H138.09C137.569 39.2929 137.112 39.7494 137.112 40.3363V42.8144V45.3577C137.112 45.9446 137.569 46.4011 138.09 46.4011H139.003C139.069 46.4011 139.199 46.4011 139.264 46.4663C140.112 46.662 140.373 46.9228 140.569 47.7706C140.634 47.8358 140.634 47.9662 140.634 48.0314V48.9444C140.634 49.4661 141.09 49.9226 141.677 49.9226H144.221H147.742H151.329H153.807C154.394 49.9226 154.85 49.4661 154.85 48.9444V48.0314C154.85 47.9662 154.85 47.8358 154.915 47.7706C155.176 46.9228 155.372 46.662 156.22 46.4663C156.35 46.4011 156.415 46.4011 156.546 46.4011H156.741C156.872 46.4011 156.937 46.4011 157.067 46.4663C157.915 46.662 158.111 46.9228 158.372 47.7706C158.437 47.8358 158.437 47.9662 158.437 48.0314V48.9444C158.437 49.4661 158.893 49.9226 159.48 49.9226H160.915C161.502 49.9226 161.958 49.4661 161.958 48.9444V48.0314C161.958 47.9662 162.024 47.8358 162.024 47.7706C162.285 46.9228 162.48 46.662 163.328 46.4663C163.458 46.4011 163.524 46.4011 163.654 46.4011H164.502C165.089 46.4011 165.545 45.9446 165.545 45.3577V43.8578C165.545 43.2709 165.089 42.8144 164.502 42.8144H163.002C162.415 42.8144 161.958 43.2709 161.958 43.8578V44.7708C161.958 44.836 161.958 44.9664 161.958 45.0316C161.698 45.8794 161.437 46.1403 160.589 46.3359C160.524 46.4011 160.459 46.4011 160.328 46.4011H160.067C160.002 46.4011 159.872 46.4011 159.806 46.3359C158.959 46.1403 158.698 45.8794 158.437 45.0316C158.437 44.9664 158.437 44.836 158.437 44.7708V42.8144V39.2929V37.4017C158.437 37.2713 158.437 37.2061 158.437 37.0757C158.698 36.2279 158.959 35.967 159.937 35.7062H160.915C161.502 35.7062 161.958 35.2497 161.958 34.6628V32.1847V30.2935C161.958 30.1631 162.024 30.0979 162.024 29.9674C162.285 29.1197 162.48 28.924 163.328 28.6632C163.458 28.598 163.524 28.598 163.654 28.598H164.502C165.089 28.598 165.545 28.1415 165.545 27.5546V25.0765V22.5332C165.545 21.9462 165.089 21.4897 164.502 21.4897H163.002C162.415 21.4897 161.958 21.9462 161.958 22.5332V25.0765Z" fill="#FF9344"/>
<path d="M187.782 21H188.304C189.491 21 189.413 21.913 189.413 22.0434V27.1301C189.413 27.6518 188.956 28.1083 188.369 28.1083H187.522C187.456 28.1083 187.326 28.1735 187.261 28.1735C186.413 28.4343 186.152 28.6952 185.891 29.4778V29.8038V30.6516C185.891 31.2385 185.435 31.695 184.848 31.695H183.935C183.935 31.695 183.754 31.7417 183.674 31.7602C182.826 31.9558 182.631 32.2167 182.37 33.0645C182.35 33.1303 182.305 33.3253 182.305 33.3253V33.5862C182.305 33.5862 182.353 33.8639 182.37 33.9122C182.631 34.76 182.826 34.9556 183.674 35.2165C183.739 35.2165 183.87 35.2817 183.935 35.2817H184.848C185.435 35.2817 185.891 35.7382 185.891 36.2599V45.4878V45.8139C186.152 46.6616 186.413 46.8573 187.261 47.1181C187.326 47.1181 187.456 47.1833 187.522 47.1833H187.782C187.848 47.1833 187.978 47.1181 188.043 47.1181C188.891 46.8573 189.152 46.6616 189.413 45.8139V45.4878V44.64C189.413 44.0531 189.869 43.5966 190.456 43.5966H191.956C192.543 43.5966 193 44.0531 193 44.64V46.1399C193 46.7269 192.543 47.1833 191.956 47.1833H191.108H190.782C189.935 47.4442 189.739 47.7051 189.478 48.5528C189.413 48.618 189.413 48.6832 189.413 48.8137V49.6614C189.413 50.2484 188.956 50.7048 188.369 50.7048H186.935C186.348 50.7048 185.891 50.2484 185.891 49.6614V48.8137C185.891 48.6832 185.826 48.618 185.826 48.5528C185.565 47.7051 185.37 47.4442 184.522 47.1833H184.196H183.348C182.761 47.1833 182.305 46.7269 182.305 46.1399V41.7054C182.305 41.575 182.305 41.5098 182.239 41.3794C182.044 40.5968 181.783 40.336 180.935 40.0752H180.674H179.761C179.24 40.0752 178.783 39.5535 178.783 39.0318V38.1189C178.783 38.0537 178.718 37.9232 178.718 37.858C178.457 37.0103 178.261 36.7494 177.414 36.5538C177.283 36.4886 177.218 36.4886 177.088 36.4886H176.827C176.761 36.4886 176.631 36.4886 176.566 36.5538C175.718 36.7494 175.457 37.0103 175.262 37.858C175.196 37.9232 175.196 38.0537 175.196 38.1189V49.6614C175.196 50.2484 174.74 50.7048 174.153 50.7048H172.653C172.131 50.7048 171.675 50.2484 171.675 49.6614L171.609 30.4237C171.609 29.8368 172.066 29.3803 172.653 29.3803H173.501C173.631 29.3803 173.696 29.3803 173.827 29.3151C174.674 29.1195 174.87 28.8586 175.131 28.0109C175.131 27.9457 175.196 27.8152 175.196 27.75V22.0439C175.196 21.4691 175.587 21.1472 176.973 21.1472C178.359 21.1472 178.718 21.5838 178.718 22.0439V28.3369C178.718 28.9238 178.261 29.3803 177.674 29.3803H176.826C176.696 29.3803 176.631 29.3803 176.5 29.4456C175.718 29.6412 175.457 29.902 175.196 30.7498V31.0107V31.2715V31.5976C175.457 32.3801 175.718 32.641 176.5 32.9018H176.826H179.5C179.829 32.9018 181.049 32.6092 181.538 32.1521C182.027 31.695 182.272 31.2554 182.272 30.4402V29.3803C182.272 28.8099 182.679 28.1083 183.331 28.1083H184.522C185.37 27.8474 185.565 27.5866 185.826 26.804C185.826 26.6736 185.891 26.6083 185.891 26.4779V22.0434C185.891 21.4565 186.348 21 186.935 21H187.782Z" fill="#FF9344"/>
</svg>
