<svg width="1071" height="306" viewBox="0 0 1071 306" fill="none" xmlns="http://www.w3.org/2000/svg">
<path d="M355.861 168.612H332.723H319.868C319.44 168.612 318.583 168.612 318.154 168.184C312.584 166.47 310.87 165.184 309.584 159.614C309.156 159.185 309.156 158.328 309.156 157.9V145.045V121.907V109.481C309.156 108.624 309.156 108.195 309.584 107.338C310.87 101.768 312.584 100.483 318.154 98.7687C318.583 98.3402 319.44 98.3402 319.868 98.3402H332.723H355.861H379.428H391.854C392.282 98.3402 393.139 98.3402 393.568 98.7687C399.138 100.483 400.852 101.768 402.566 107.338C402.566 108.195 402.566 108.624 402.566 109.481V121.907V145.045V157.9C402.566 158.328 402.566 159.185 402.566 159.614C400.852 165.184 399.138 166.47 393.568 168.184C393.139 168.612 392.282 168.612 391.854 168.612H379.428H355.861ZM449.271 159.614C447.557 165.184 445.843 166.47 440.701 168.184C439.844 168.612 439.416 168.612 438.559 168.612H436.845C436.416 168.612 435.559 168.612 435.131 168.184C429.56 166.47 427.847 165.184 426.133 159.614C426.133 159.185 426.133 158.328 426.133 157.9V145.045V121.907V109.481C426.133 108.624 426.133 108.195 426.133 107.338C427.847 101.768 429.56 100.483 435.131 98.7687C435.559 98.3402 436.416 98.3402 436.845 98.3402H442.415C446.271 98.3402 449.271 95.3408 449.271 91.4845V75.202V51.6352V34.9243C449.271 31.4964 446.271 28.497 442.415 28.497H436.845C436.416 28.497 435.559 28.0685 435.131 28.0685C429.56 26.3545 427.847 25.0691 426.133 19.4987C426.133 18.6418 426.133 18.2133 426.133 17.3563V11.786C426.133 7.92962 423.133 4.93022 419.277 4.93022H402.566H379.428H355.861H339.15C335.722 4.93022 332.723 7.92962 332.723 11.786V17.3563C332.723 18.2133 332.294 18.6418 332.294 19.4987C330.58 25.0691 329.295 26.3545 323.724 28.0685C322.867 28.0685 322.439 28.497 321.582 28.497H316.012C312.155 28.497 309.156 31.4964 309.156 34.9243V44.7794C309.156 48.6358 312.155 51.6352 316.012 51.6352H325.867C329.295 51.6352 332.723 48.6358 332.723 44.7794V39.2091C332.723 38.3521 332.723 37.9237 332.723 37.0667C334.437 31.9249 336.15 30.2109 341.292 28.497C342.149 28.497 342.578 28.497 343.435 28.497H355.861H379.428H402.566H414.992C415.849 28.497 416.277 28.497 417.134 28.497C422.705 30.2109 423.99 31.9249 425.704 37.0667C426.133 37.9237 426.133 38.3521 426.133 39.2091V51.6352V75.202V87.6281C426.133 88.0566 426.133 88.9135 425.704 89.342C423.99 94.9123 422.705 96.6263 417.134 98.3402C416.277 98.3402 415.849 98.3402 414.992 98.3402H413.707C412.85 98.3402 412.421 98.3402 411.564 98.3402C405.994 96.6263 404.708 94.9123 402.994 89.342C402.566 88.9135 402.566 88.0566 402.566 87.6281V82.0578C402.566 78.2014 399.566 75.202 395.71 75.202H379.428H355.861H332.723H316.012C312.155 75.202 309.156 78.2014 309.156 82.0578V87.6281C309.156 88.0566 309.156 88.9135 308.727 89.342C307.442 94.9123 305.728 96.6263 300.158 98.3402C299.729 98.3402 298.872 98.3402 298.444 98.3402H292.445C289.017 98.3402 286.018 101.34 286.018 105.196V121.907V145.045V161.756C286.018 165.613 289.017 168.612 292.445 168.612H299.301C305.728 170.326 307.013 171.611 308.727 177.61C309.156 178.039 309.156 178.896 309.156 179.324V185.323C309.156 188.751 312.155 191.75 316.012 191.75H332.723H355.861H379.428H395.71C399.566 191.75 402.566 188.751 402.566 185.323V179.324C402.566 178.896 402.566 178.039 402.994 177.61C404.708 171.611 406.422 170.326 412.421 168.612H416.277C422.276 170.326 423.99 171.611 425.704 177.61C426.133 178.039 426.133 178.896 426.133 179.324V185.323C426.133 188.751 429.132 191.75 432.988 191.75H442.415C446.271 191.75 449.271 188.751 449.271 185.323V179.324C449.271 178.896 449.699 178.039 449.699 177.61C451.413 171.611 453.127 170.326 459.126 168.612H465.982C469.838 168.612 472.838 165.613 472.838 161.756V151.901C472.838 148.045 469.838 145.045 465.982 145.045H456.127C452.27 145.045 449.271 148.045 449.271 151.901V157.9C449.271 158.328 449.271 159.185 449.271 159.614Z" fill="white"/>
<path d="M657.656 84.2002C657.656 85.0572 657.656 85.4856 657.656 86.3426C655.942 91.9129 654.228 93.1984 647.801 94.9123H641.373C637.517 94.9123 634.518 98.3402 634.518 101.768V118.479V142.046V154.472C634.518 154.9 634.518 155.757 634.089 156.186C632.375 161.756 631.09 163.47 625.519 164.756C625.091 165.184 624.234 165.184 623.377 165.184H610.951H587.813H564.246H551.82C550.963 165.184 550.534 165.184 549.677 164.756C544.535 163.47 542.821 161.756 541.108 156.186C541.108 155.757 541.108 154.9 541.108 154.472V142.046V118.479V106.053C541.108 105.196 541.108 104.768 541.108 103.911C542.821 98.7687 544.535 97.0548 549.677 95.3408C550.534 95.3408 550.963 94.9123 551.82 94.9123H557.39C561.246 94.9123 564.246 91.9129 564.246 88.4851V71.7741V48.2073V35.7812C564.246 35.3527 564.246 34.4958 564.674 34.0673C566.388 28.497 567.674 26.783 573.244 25.0691C573.672 25.0691 574.529 25.0691 574.958 25.0691H587.813H610.951H623.377C624.234 25.0691 625.091 25.0691 625.519 25.0691C631.09 26.783 632.375 28.497 634.089 34.0673C634.518 34.4958 634.518 35.3527 634.518 35.7812V41.78C634.518 45.2079 637.517 48.2073 641.373 48.2073H646.944C647.801 48.2073 648.229 48.6358 649.086 48.6358C654.228 50.3498 655.942 51.6352 657.656 57.2056C657.656 58.0625 657.656 58.491 657.656 59.348V71.7741V84.2002ZM667.511 48.2073C661.512 46.4934 659.798 45.2079 658.084 39.2091C658.084 38.7806 657.656 38.3521 657.656 37.4952V31.9249C657.656 28.0685 654.656 25.0691 650.8 25.0691H644.373C637.945 23.3551 636.232 21.6412 634.518 16.0709C634.518 15.6424 634.518 14.7854 634.518 13.9284V8.3581C634.518 4.50172 631.518 1.50232 627.662 1.50232H610.951H587.813H571.102C567.245 1.50232 564.246 4.50172 564.246 8.3581V13.9284C564.246 14.7854 564.246 15.6424 563.817 16.0709C562.103 21.6412 560.818 23.3551 554.391 25.0691H551.82C550.963 25.0691 550.534 25.0691 549.677 24.6406C544.535 22.9266 542.821 21.6412 541.108 16.0709C541.108 15.6424 541.108 14.7854 541.108 14.3569V8.3581C541.108 4.50172 537.68 1.50232 534.252 1.50232H524.397C520.54 1.50232 517.541 4.50172 517.541 8.3581V18.2133C517.541 22.0697 520.54 25.0691 524.397 25.0691H531.252C531.252 25.0691 531.252 25.0691 530.824 25.0691C537.251 26.783 538.965 28.0685 540.679 34.0673C540.679 34.4958 541.108 35.3527 541.108 35.7812V48.2073V71.7741V84.2002C541.108 85.0572 540.679 85.4856 540.679 86.3426C538.965 91.9129 537.251 93.1984 530.824 94.9123C531.252 94.9123 531.252 94.9123 531.252 94.9123H524.397C520.54 94.9123 517.541 98.3402 517.541 101.768V118.479V130.905C517.541 131.762 517.541 132.191 517.112 133.048C515.827 138.189 514.113 139.903 508.543 141.617C508.114 141.617 507.257 142.046 506.829 142.046H500.83C497.402 142.046 494.403 145.045 494.403 148.473V165.184V188.751V211.889V235.456V258.594V282.161V298.872C494.403 302.3 497.402 305.299 500.83 305.299H510.685C514.541 305.299 517.541 302.3 517.541 298.872V282.161V258.594V235.456V211.889V188.751V175.896C517.541 175.468 517.541 174.611 517.969 174.182C519.683 168.184 521.397 166.898 527.396 165.184H531.252H530.824C537.251 166.898 538.965 168.184 540.679 174.182C540.679 174.611 541.108 175.468 541.108 175.896V181.895C541.108 185.751 544.107 188.751 547.535 188.751H564.246H587.813H610.951H627.662C631.518 188.751 634.518 185.751 634.518 181.895V175.896C634.518 175.468 634.518 174.611 634.518 174.182C636.232 168.184 637.945 166.898 644.373 165.184H650.8C654.656 165.184 657.656 162.185 657.656 158.328V142.046V118.479V106.053C657.656 105.196 658.084 104.768 658.084 103.911C659.798 98.7687 661.084 97.0548 666.654 95.3408C667.511 95.3408 667.939 94.9123 668.796 94.9123H674.367C678.223 94.9123 681.223 91.9129 681.223 88.4851V71.7741V55.0631C681.223 51.2067 678.223 48.2073 674.367 48.2073H667.511Z" fill="white"/>
<path d="M23.5667 178.468L23.5667 184.038C23.5667 187.894 26.5661 190.894 30.4225 190.894L47.1335 190.894L70.2717 190.894L86.9827 190.894C90.8391 190.894 93.8385 187.894 93.8385 184.038L93.8385 178.468C93.8385 177.611 93.8385 177.182 93.8385 176.325C95.5524 171.183 97.2664 169.47 102.837 167.756C103.265 167.756 103.694 167.327 104.551 167.327L106.265 167.327C106.693 167.327 107.55 167.756 107.979 167.756C113.549 169.47 115.263 171.183 116.977 176.325C116.977 177.182 116.977 177.611 116.977 178.468L116.977 184.038C116.977 187.894 119.976 190.894 123.833 190.894L140.544 190.894L163.682 190.894L180.393 190.894C184.249 190.894 187.249 187.894 187.249 184.038L187.249 178.468C187.249 177.611 187.249 177.182 187.677 176.325C188.962 171.183 190.676 169.47 196.247 167.756C196.675 167.756 197.532 167.327 197.961 167.327L199.675 167.327C200.532 167.327 200.96 167.756 201.817 167.756C206.959 169.469 208.673 171.183 210.387 176.325C210.387 177.182 210.387 177.611 210.387 178.468L210.387 184.038C210.387 187.894 213.815 190.894 217.243 190.894L227.098 190.894C230.954 190.894 233.954 187.894 233.954 184.038L233.954 174.183C233.954 170.755 230.954 167.327 227.098 167.327L221.527 167.327C220.67 167.327 220.242 167.327 219.385 167.327C213.815 165.613 212.529 163.899 210.815 158.757C210.815 157.9 210.387 157.472 210.387 156.615L210.387 144.189L210.387 120.622L210.387 108.196C210.387 107.767 210.815 106.91 210.815 106.482C212.529 100.912 213.815 99.1977 219.385 97.4838C220.242 97.4838 220.67 97.4838 221.527 97.4838L227.098 97.4838C230.954 97.4838 233.954 94.4844 233.954 90.628L233.954 73.917L233.954 61.4909C233.954 61.0624 233.954 60.2055 234.382 59.777C235.667 54.2066 237.381 52.4927 242.952 50.7788C243.38 50.7788 244.237 50.7788 244.666 50.7788L250.664 50.7788C254.092 50.7788 257.092 47.7794 257.092 43.923L257.092 27.212L257.092 10.501C257.092 7.07315 254.092 4.07374 250.664 4.07374L240.809 4.07374C236.953 4.07374 233.954 7.07315 233.954 10.501L233.954 27.212L233.954 39.6381C233.954 40.4951 233.954 40.9236 233.525 41.7806C232.24 47.3509 230.526 48.6363 224.955 50.3503C224.527 50.3503 223.67 50.7788 223.241 50.7788L217.243 50.7788C213.815 50.7788 210.387 53.7782 210.387 57.6346L210.387 73.917L210.387 86.3431C210.387 87.2001 210.387 87.6286 210.387 88.4856C208.673 94.0559 206.959 95.3414 201.817 97.0553C200.96 97.4838 200.532 97.4838 199.675 97.4838L194.104 97.4838C190.248 97.4838 187.249 100.483 187.249 104.34L187.249 120.622L187.249 144.189L187.249 156.615C187.249 157.472 187.249 157.9 186.82 158.757C185.106 163.899 183.821 165.613 178.25 167.327C177.822 167.327 176.965 167.327 176.536 167.327L163.682 167.327L140.544 167.327L128.117 167.327C127.26 167.327 126.832 167.327 125.975 167.327C120.405 165.613 119.119 163.899 117.405 158.757C116.977 157.9 116.977 157.472 116.977 156.615L116.977 144.189L116.977 120.622L116.977 108.196C116.977 107.767 116.977 106.91 117.405 106.482C119.119 100.483 120.833 99.1977 126.832 97.4838L133.688 97.4838C137.544 97.4838 140.543 94.4844 140.543 90.628L140.543 73.917L140.543 61.4909C140.543 61.0624 140.543 60.2055 140.543 59.777C142.257 54.2067 143.971 52.4927 149.542 50.7788C149.97 50.7788 150.827 50.7788 151.256 50.7788L156.826 50.7788C160.682 50.7788 163.682 47.7794 163.682 43.923L163.682 27.212L163.682 10.501C163.682 7.07315 160.682 4.07375 156.826 4.07375L147.399 4.07375C143.543 4.07375 140.543 7.07316 140.543 10.501L140.543 27.212L140.543 39.6381C140.543 40.4951 140.543 40.9236 140.115 41.7806C138.401 47.3509 137.116 48.6363 131.545 50.3503C130.688 50.3503 130.26 50.7788 129.403 50.7788L123.833 50.7788C119.976 50.7788 116.977 53.7782 116.977 57.6346L116.977 73.917L116.977 86.3431C116.977 87.2001 116.977 88.0571 116.977 88.4856C115.263 94.0559 113.549 95.3414 107.979 97.0553C107.55 97.4838 106.693 97.4838 106.265 97.4838L100.694 97.4838C96.8379 97.4838 93.8385 100.483 93.8385 104.34L93.8385 120.622L93.8385 144.189L93.8385 156.615C93.8385 157.472 93.41 157.9 93.41 158.757C91.6961 163.899 90.4106 165.613 84.8403 167.327C83.9833 167.327 83.5548 167.327 82.6978 167.327L70.2717 167.327L47.1335 167.327L34.2789 167.327C33.8504 167.327 32.9934 167.327 32.5649 167.327C26.9946 165.613 25.2807 163.899 23.9952 158.757C23.5667 157.9 23.5667 157.472 23.5667 156.615L23.5667 144.189L23.5667 120.622L23.5667 108.196C23.5667 107.767 23.5667 106.91 23.9952 106.482C25.7092 100.483 27.4231 99.1977 33.4219 97.4838L40.2777 97.4838C43.7056 97.4838 47.1335 94.4844 47.1335 90.628L47.1335 73.917L47.1335 61.4909C47.1335 61.0624 47.1335 60.2055 47.1335 59.777C48.8474 53.7782 50.5614 52.4927 56.9887 50.7788L63.416 50.7788C67.2723 50.7788 70.2717 47.7794 70.2717 43.923L70.2717 27.212L70.2717 10.5011C70.2717 7.07316 67.2723 4.07376 63.4159 4.07376L53.5607 4.07376C50.1329 4.07376 47.1335 7.07316 47.1335 10.5011L47.1335 27.212L47.1335 39.6381C47.1335 40.4951 46.705 40.9236 46.705 41.7806C44.991 47.3509 43.7056 48.6364 38.1353 50.3503C37.2783 50.3503 36.8498 50.7788 35.9928 50.7788L30.4225 50.7788C26.5661 50.7788 23.5667 53.7782 23.5667 57.6346L23.5667 73.917L23.5667 86.3431C23.5667 87.2001 23.5667 88.0571 23.1382 88.4856C21.8528 94.0559 20.1388 95.3414 14.5685 97.0553C14.14 97.4838 13.2831 97.4838 12.8546 97.4838L6.85574 97.4838C3.42787 97.4838 -3.56935e-05 100.483 -3.53564e-05 104.34L-3.39329e-05 120.622L-3.18726e-05 144.189L-3.04117e-05 160.9C-3.0112e-05 164.328 3.42787 167.327 6.85575 167.327L12.8546 167.327C13.2831 167.327 14.14 167.756 14.5685 167.756C20.1388 169.47 21.8528 171.183 23.1383 176.325C23.5667 177.182 23.5667 177.611 23.5667 178.468Z" fill="white"/>
<path d="M867.041 26.7846V39.2107C867.041 39.6392 867.041 40.4962 867.041 40.9247C865.327 46.9235 863.613 48.209 857.186 49.9229H850.759C846.903 49.9229 843.903 52.9223 843.903 56.7787V73.4897V85.9158C843.903 86.3442 843.903 87.2012 843.475 87.6297C841.761 93.2 840.475 94.914 834.905 96.6279C834.048 96.6279 833.619 96.6279 832.762 96.6279H827.192C823.336 96.6279 820.336 99.6273 820.336 103.484V120.195V143.333V156.188C820.336 156.616 820.336 157.473 820.336 157.901C818.622 163.472 816.908 165.186 811.338 166.471C810.91 166.9 810.053 166.9 809.624 166.9H797.198H773.631H750.493H737.639C737.21 166.9 736.353 166.9 735.925 166.471C730.354 165.186 728.64 163.472 727.355 157.901C726.926 157.473 726.926 156.616 726.926 156.188V143.333V130.907C726.926 130.478 726.926 129.621 727.355 129.193C729.069 123.194 730.783 121.909 736.782 120.195H743.637C747.494 120.195 750.493 117.195 750.493 113.339V96.6279V73.4897V61.0636C750.493 60.2066 750.493 59.7781 750.493 58.9211C752.207 53.3508 753.921 52.0653 759.063 50.3514C759.92 49.9229 760.348 49.9229 761.205 49.9229H766.776C770.632 49.9229 773.631 46.9235 773.631 43.0671V26.7846V10.0737C773.631 6.2173 770.632 3.2179 766.776 3.2179H756.92C753.493 3.2179 750.493 6.2173 750.493 10.0737V26.7846V39.2107C750.493 39.6392 750.065 40.4962 750.065 40.9247C748.351 46.9235 746.637 48.209 740.209 49.9229C740.638 49.9229 740.638 49.9229 740.638 49.9229H733.782C729.926 49.9229 726.926 52.9223 726.926 56.7787V73.4897V96.6279V109.483C726.926 109.911 726.926 110.768 726.498 111.196C725.212 116.767 723.498 118.052 717.928 119.766C717.5 120.195 716.643 120.195 716.214 120.195H710.215C706.787 120.195 703.788 123.194 703.788 127.05V143.333V160.044C703.788 163.9 706.787 166.9 710.215 166.9H716.214C716.643 166.9 717.5 166.9 717.928 167.328C723.498 168.614 725.212 170.328 726.498 175.898C726.926 176.326 726.926 177.183 726.926 177.612V183.611C726.926 187.039 729.926 190.038 733.782 190.038H750.493H773.631H797.198H813.481C817.337 190.038 820.336 187.039 820.336 183.611V177.612C820.336 177.183 820.336 176.326 820.765 175.898C822.479 170.328 823.764 168.614 829.335 167.328C830.192 166.9 830.62 166.9 831.477 166.9H832.762C833.619 166.9 834.048 166.9 834.905 167.328C840.475 168.614 841.761 170.328 843.475 175.898C843.903 176.326 843.903 177.183 843.903 177.612V183.611C843.903 187.039 846.903 190.038 850.759 190.038H860.186C864.042 190.038 867.041 187.039 867.041 183.611V177.612C867.041 177.183 867.47 176.326 867.47 175.898C869.184 170.328 870.469 168.614 876.04 167.328C876.897 166.9 877.325 166.9 878.182 166.9H883.752C887.609 166.9 890.608 163.9 890.608 160.044V150.189C890.608 146.332 887.609 143.333 883.752 143.333H873.897C870.041 143.333 867.041 146.332 867.041 150.189V156.188C867.041 156.616 867.041 157.473 867.041 157.901C865.327 163.472 863.613 165.186 858.043 166.471C857.615 166.9 857.186 166.9 856.329 166.9H854.615C854.187 166.9 853.33 166.9 852.901 166.471C847.331 165.186 845.617 163.472 843.903 157.901C843.903 157.473 843.903 156.616 843.903 156.188V143.333V120.195V107.769C843.903 106.912 843.903 106.483 843.903 105.626C845.617 100.056 847.331 98.3419 853.758 96.6279H860.186C864.042 96.6279 867.041 93.6285 867.041 89.7721V73.4897V61.0636C867.041 60.2066 867.47 59.7781 867.47 58.9211C869.184 53.3508 870.469 52.0653 876.04 50.3514C876.897 49.9229 877.325 49.9229 878.182 49.9229H883.752C887.609 49.9229 890.608 46.9235 890.608 43.0671V26.7846V10.0737C890.608 6.2173 887.609 3.2179 883.752 3.2179H873.897C870.041 3.2179 867.041 6.2173 867.041 10.0737V26.7846Z" fill="white"/>
<path d="M1036.72 6.38839e-10H1040.15C1047.95 -7.14819e-05 1047.43 5.99875 1047.43 6.85572V40.278C1047.43 43.7059 1044.43 46.7054 1040.58 46.7054H1035.01C1034.58 46.7054 1033.72 47.1339 1033.29 47.1339C1027.72 48.8479 1026.01 50.5618 1024.29 55.7036V57.8461V63.4164C1024.29 67.2728 1021.29 70.2722 1017.44 70.2722H1011.44C1011.44 70.2722 1010.25 70.5789 1009.72 70.7007C1004.15 71.9861 1002.87 73.7001 1001.16 79.2704C1001.02 79.7028 1000.73 80.9844 1000.73 80.9844V82.6983C1000.73 82.6983 1001.05 84.5232 1001.16 84.8407C1002.87 90.4111 1004.15 91.6965 1009.72 93.4105C1010.15 93.4105 1011.01 93.8389 1011.44 93.8389H1017.44C1021.29 93.8389 1024.29 96.8384 1024.29 100.266V160.899V163.041C1026.01 168.612 1027.72 169.897 1033.29 171.611C1033.72 171.611 1034.58 172.039 1035.01 172.039H1036.72C1037.15 172.039 1038.01 171.611 1038.43 171.611C1044 169.897 1045.72 168.612 1047.43 163.041V160.899V155.328C1047.43 151.472 1050.43 148.473 1054.29 148.473H1064.14C1068 148.473 1071 151.472 1071 155.328V165.184C1071 169.04 1068 172.039 1064.14 172.039H1058.57H1056.43C1050.86 173.753 1049.57 175.467 1047.86 181.038C1047.43 181.466 1047.43 181.895 1047.43 182.752V188.322C1047.43 192.178 1044.43 195.178 1040.58 195.178H1031.15C1027.29 195.178 1024.29 192.178 1024.29 188.322V182.752C1024.29 181.895 1023.86 181.466 1023.86 181.038C1022.15 175.467 1020.87 173.753 1015.3 172.039H1013.15H1007.58C1003.73 172.039 1000.73 169.04 1000.73 165.184V136.046C1000.73 135.189 1000.73 134.761 1000.3 133.904C999.013 128.762 997.299 127.049 991.728 125.335H990.015H984.016C980.588 125.335 977.588 121.907 977.588 118.479V112.481C977.588 112.052 977.16 111.195 977.16 110.767C975.446 105.197 974.161 103.483 968.59 102.197C967.733 101.769 967.305 101.769 966.448 101.769H964.734C964.305 101.769 963.448 101.769 963.02 102.197C957.45 103.483 955.736 105.197 954.45 110.767C954.022 111.195 954.022 112.052 954.022 112.481V188.322C954.022 192.178 951.022 195.178 947.166 195.178H937.311C933.883 195.178 930.883 192.178 930.883 188.322L930.453 61.9194C930.453 58.063 933.453 55.0636 937.309 55.0636H942.879C943.736 55.0636 944.165 55.0636 945.022 54.6351C950.592 53.3496 951.877 51.6357 953.591 46.0654C953.591 45.6369 954.02 44.7799 954.02 44.3514V6.85891C954.02 3.08233 956.591 0.967103 965.696 0.9671C974.801 0.967096 977.158 3.83566 977.158 6.85891V48.2078C977.158 52.0642 974.159 55.0636 970.302 55.0636H964.732C963.875 55.0636 963.447 55.0636 962.59 55.4921C957.448 56.7775 955.734 58.4915 954.02 64.0618V65.7757V67.4897V69.6321C955.734 74.774 957.448 76.4879 962.59 78.2019H964.732H982.3C984.458 78.2019 992.477 76.2788 995.691 73.2755C998.904 70.2722 1000.51 67.3838 1000.51 62.0277V55.0636C1000.51 51.3155 1003.19 46.7054 1007.47 46.7054H1015.3C1020.87 44.9915 1022.15 43.2775 1023.86 38.1357C1023.86 37.2787 1024.29 36.8498 1024.29 35.9928V6.85572C1024.29 2.99934 1027.29 6.38839e-10 1031.15 6.38839e-10H1036.72Z" fill="white"/>
</svg>
