<svg width="78" height="78" viewBox="0 0 78 78" fill="none" xmlns="http://www.w3.org/2000/svg">
<circle cx="39" cy="39" r="39" fill="#FF9344"/>
<path d="M38.9751 11.0001C33.4123 11.0001 28.0767 13.1566 24.1431 16.9959C20.2094 20.8353 18 26.043 18 31.4722C18 43.4427 29.4884 57.7715 35.4588 64.4527C36.3466 65.4359 37.6255 66 38.969 66C40.3126 66 41.5905 65.4359 42.4793 64.4527C48.462 57.8075 60 43.4795 60 31.4722C60 26.0343 57.7835 20.8198 53.8394 16.9789C49.8945 13.1379 44.5465 10.9872 38.9751 11.0001ZM38.9751 43.1735C35.7956 43.1735 32.7455 41.9406 30.4974 39.7457C28.2488 37.5515 26.9854 34.5754 26.9854 31.4713C26.9854 28.368 28.2486 25.3911 30.4974 23.197C32.7455 21.0022 35.7956 19.7691 38.9751 19.7691C42.1546 19.7691 45.2047 21.002 47.4527 23.197C49.7014 25.3911 50.9648 28.368 50.9648 31.4713C50.9648 34.5752 49.7016 37.5515 47.4527 39.7457C45.2047 41.9404 42.1546 43.1735 38.9751 43.1735Z" fill="#2E2E2E"/>
</svg>
