<svg width="334" height="96" viewBox="0 0 334 96" fill="none" xmlns="http://www.w3.org/2000/svg">
<path d="M110.978 52.5833H103.762H99.7534C99.6197 52.5833 99.3525 52.5833 99.2189 52.4497C97.4817 51.9152 96.9472 51.5143 96.5463 49.7771C96.4127 49.6435 96.4127 49.3763 96.4127 49.2426V45.2338V38.018V34.1428C96.4127 33.8755 96.4127 33.7419 96.5463 33.4746C96.9472 31.7375 97.4817 31.3366 99.2189 30.8021C99.3525 30.6685 99.6197 30.6685 99.7534 30.6685H103.762H110.978H118.328H122.203C122.336 30.6685 122.604 30.6685 122.737 30.8021C124.474 31.3366 125.009 31.7375 125.543 33.4746C125.543 33.7419 125.543 33.8755 125.543 34.1428V38.018V45.2338V49.2426C125.543 49.3763 125.543 49.6435 125.543 49.7771C125.009 51.5143 124.474 51.9152 122.737 52.4497C122.604 52.5833 122.336 52.5833 122.203 52.5833H118.328H110.978ZM140.109 49.7771C139.574 51.5143 139.04 51.9152 137.436 52.4497C137.169 52.5833 137.035 52.5833 136.768 52.5833H136.234C136.1 52.5833 135.833 52.5833 135.699 52.4497C133.962 51.9152 133.427 51.5143 132.893 49.7771C132.893 49.6435 132.893 49.3763 132.893 49.2426V45.2338V38.018V34.1428C132.893 33.8755 132.893 33.7419 132.893 33.4746C133.427 31.7375 133.962 31.3366 135.699 30.8021C135.833 30.6685 136.1 30.6685 136.234 30.6685H137.971C139.173 30.6685 140.109 29.7331 140.109 28.5304V23.4526V16.1031V10.8917C140.109 9.82265 139.173 8.88726 137.971 8.88726H136.234C136.1 8.88726 135.833 8.75363 135.699 8.75363C133.962 8.21912 133.427 7.81824 132.893 6.08109C132.893 5.81383 132.893 5.6802 132.893 5.41295V3.6758C132.893 2.47316 131.958 1.53777 130.755 1.53777H125.543H118.328H110.978H105.767C104.698 1.53777 103.762 2.47316 103.762 3.6758V5.41295C103.762 5.6802 103.629 5.81383 103.629 6.08109C103.094 7.81824 102.693 8.21912 100.956 8.75363C100.689 8.75363 100.555 8.88726 100.288 8.88726H98.5507C97.3481 8.88726 96.4127 9.82265 96.4127 10.8917V13.9651C96.4127 15.1677 97.3481 16.1031 98.5507 16.1031H101.624C102.693 16.1031 103.762 15.1677 103.762 13.9651V12.2279C103.762 11.9607 103.762 11.8271 103.762 11.5598C104.297 9.95627 104.831 9.42176 106.435 8.88726C106.702 8.88726 106.836 8.88726 107.103 8.88726H110.978H118.328H125.543H129.419C129.686 8.88726 129.819 8.88726 130.087 8.88726C131.824 9.42176 132.225 9.95627 132.759 11.5598C132.893 11.8271 132.893 11.9607 132.893 12.2279V16.1031V23.4526V27.3278C132.893 27.4614 132.893 27.7287 132.759 27.8623C132.225 29.5995 131.824 30.134 130.087 30.6685C129.819 30.6685 129.686 30.6685 129.419 30.6685H129.018C128.75 30.6685 128.617 30.6685 128.35 30.6685C126.612 30.134 126.212 29.5995 125.677 27.8623C125.543 27.7287 125.543 27.4614 125.543 27.3278V25.5906C125.543 24.388 124.608 23.4526 123.405 23.4526H118.328H110.978H103.762H98.5507C97.3481 23.4526 96.4127 24.388 96.4127 25.5906V27.3278C96.4127 27.4614 96.4127 27.7287 96.2791 27.8623C95.8782 29.5995 95.3437 30.134 93.6065 30.6685C93.4729 30.6685 93.2057 30.6685 93.072 30.6685H91.2012C90.1322 30.6685 89.1968 31.6039 89.1968 32.8065V38.018V45.2338V50.4453C89.1968 51.6479 90.1322 52.5833 91.2012 52.5833H93.3393C95.3437 53.1178 95.7446 53.5187 96.2791 55.3895C96.4127 55.5231 96.4127 55.7904 96.4127 55.924V57.7948C96.4127 58.8638 97.3481 59.7992 98.5507 59.7992H103.762H110.978H118.328H123.405C124.608 59.7992 125.543 58.8638 125.543 57.7948V55.924C125.543 55.7904 125.543 55.5231 125.677 55.3895C126.212 53.5187 126.746 53.1178 128.617 52.5833H129.819C131.69 53.1178 132.225 53.5187 132.759 55.3895C132.893 55.5231 132.893 55.7904 132.893 55.924V57.7948C132.893 58.8638 133.828 59.7992 135.031 59.7992H137.971C139.173 59.7992 140.109 58.8638 140.109 57.7948V55.924C140.109 55.7904 140.242 55.5231 140.242 55.3895C140.777 53.5187 141.311 53.1178 143.182 52.5833H145.32C146.523 52.5833 147.458 51.6479 147.458 50.4453V47.3718C147.458 46.1692 146.523 45.2338 145.32 45.2338H142.247C141.044 45.2338 140.109 46.1692 140.109 47.3718V49.2426C140.109 49.3763 140.109 49.6435 140.109 49.7771Z" fill="white"/>
<path d="M205.095 26.2588C205.095 26.526 205.095 26.6597 205.095 26.9269C204.561 28.6641 204.026 29.0649 202.022 29.5995H200.018C198.815 29.5995 197.879 30.6685 197.879 31.7375V36.9489V44.2984V48.1736C197.879 48.3072 197.879 48.5745 197.746 48.7081C197.211 50.4453 196.81 50.9798 195.073 51.3807C194.94 51.5143 194.672 51.5143 194.405 51.5143H190.53H183.314H175.965H172.089C171.822 51.5143 171.689 51.5143 171.421 51.3807C169.818 50.9798 169.283 50.4453 168.749 48.7081C168.749 48.5745 168.749 48.3072 168.749 48.1736V44.2984V36.9489V33.0738C168.749 32.8065 168.749 32.6729 168.749 32.4056C169.283 30.8021 169.818 30.2676 171.421 29.7331C171.689 29.7331 171.822 29.5995 172.089 29.5995H173.827C175.029 29.5995 175.965 28.6641 175.965 27.595V22.3836V15.0341V11.1589C175.965 11.0253 175.965 10.758 176.098 10.6244C176.633 8.88726 177.034 8.35275 178.771 7.81824C178.904 7.81824 179.172 7.81824 179.305 7.81824H183.314H190.53H194.405C194.672 7.81824 194.94 7.81824 195.073 7.81824C196.81 8.35275 197.211 8.88726 197.746 10.6244C197.879 10.758 197.879 11.0253 197.879 11.1589V13.0297C197.879 14.0987 198.815 15.0341 200.018 15.0341H201.755C202.022 15.0341 202.156 15.1677 202.423 15.1677C204.026 15.7022 204.561 16.1031 205.095 17.8403C205.095 18.1075 205.095 18.2412 205.095 18.5084V22.3836V26.2588ZM208.169 15.0341C206.298 14.4996 205.763 14.0987 205.229 12.2279C205.229 12.0943 205.095 11.9607 205.095 11.6934V9.95627C205.095 8.75363 204.16 7.81824 202.957 7.81824H200.953C198.948 7.28373 198.414 6.74922 197.879 5.01207C197.879 4.87844 197.879 4.61119 197.879 4.34393V2.60678C197.879 1.40414 196.944 0.46875 195.741 0.46875H190.53H183.314H178.103C176.9 0.46875 175.965 1.40414 175.965 2.60678V4.34393C175.965 4.61119 175.965 4.87844 175.831 5.01207C175.297 6.74922 174.896 7.28373 172.891 7.81824H172.089C171.822 7.81824 171.689 7.81824 171.421 7.68461C169.818 7.1501 169.283 6.74922 168.749 5.01207C168.749 4.87844 168.749 4.61119 168.749 4.47756V2.60678C168.749 1.40414 167.68 0.46875 166.611 0.46875H163.537C162.335 0.46875 161.399 1.40414 161.399 2.60678V5.68021C161.399 6.88285 162.335 7.81824 163.537 7.81824H165.675C165.675 7.81824 165.675 7.81824 165.542 7.81824C167.546 8.35275 168.081 8.75363 168.615 10.6244C168.615 10.758 168.749 11.0253 168.749 11.1589V15.0341V22.3836V26.2588C168.749 26.526 168.615 26.6597 168.615 26.9269C168.081 28.6641 167.546 29.0649 165.542 29.5995C165.675 29.5995 165.675 29.5995 165.675 29.5995H163.537C162.335 29.5995 161.399 30.6685 161.399 31.7375V36.9489V40.8241C161.399 41.0914 161.399 41.225 161.266 41.4923C160.865 43.0958 160.33 43.6303 158.593 44.1648C158.459 44.1648 158.192 44.2984 158.059 44.2984H156.188C155.119 44.2984 154.183 45.2338 154.183 46.3028V51.5143V58.8638V66.0796V73.4291V80.645V87.9945V93.2059C154.183 94.275 155.119 95.2103 156.188 95.2103H159.261C160.464 95.2103 161.399 94.275 161.399 93.2059V87.9945V80.645V73.4291V66.0796V58.8638V54.855C161.399 54.7213 161.399 54.4541 161.533 54.3205C162.067 52.4497 162.602 52.0488 164.473 51.5143H165.675H165.542C167.546 52.0488 168.081 52.4497 168.615 54.3205C168.615 54.4541 168.749 54.7213 168.749 54.855V56.7257C168.749 57.9284 169.684 58.8638 170.753 58.8638H175.965H183.314H190.53H195.741C196.944 58.8638 197.879 57.9284 197.879 56.7257V54.855C197.879 54.7213 197.879 54.4541 197.879 54.3205C198.414 52.4497 198.948 52.0488 200.953 51.5143H202.957C204.16 51.5143 205.095 50.5789 205.095 49.3763V44.2984V36.9489V33.0738C205.095 32.8065 205.229 32.6729 205.229 32.4056C205.763 30.8021 206.164 30.2676 207.902 29.7331C208.169 29.7331 208.302 29.5995 208.57 29.5995H210.307C211.509 29.5995 212.445 28.6641 212.445 27.595V22.3836V17.1721C212.445 15.9695 211.509 15.0341 210.307 15.0341H208.169Z" fill="white"/>
<path d="M7.34951 55.6561L7.34951 57.3932C7.34951 58.5959 8.28489 59.5313 9.48754 59.5313L14.699 59.5313L21.9149 59.5313L27.1263 59.5313C28.329 59.5313 29.2643 58.5959 29.2643 57.3932L29.2643 55.6561C29.2643 55.3888 29.2643 55.2552 29.2643 54.9879C29.7989 53.3844 30.3334 52.8499 32.0705 52.3154C32.2041 52.3154 32.3378 52.1818 32.605 52.1818L33.1395 52.1818C33.2732 52.1818 33.5404 52.3154 33.674 52.3154C35.4112 52.8499 35.9457 53.3844 36.4802 54.9879C36.4802 55.2552 36.4802 55.3888 36.4802 55.6561L36.4802 57.3932C36.4802 58.5959 37.4156 59.5313 38.6182 59.5313L43.8297 59.5313L51.0456 59.5313L56.257 59.5313C57.4597 59.5313 58.3951 58.5959 58.3951 57.3932L58.3951 55.6561C58.3951 55.3888 58.3951 55.2552 58.5287 54.9879C58.9296 53.3844 59.4641 52.8499 61.2012 52.3154C61.3348 52.3154 61.6021 52.1818 61.7357 52.1818L62.2702 52.1818C62.5375 52.1818 62.6711 52.3154 62.9384 52.3154C64.5419 52.8499 65.0764 53.3844 65.6109 54.9879C65.6109 55.2552 65.6109 55.3888 65.6109 55.6561L65.6109 57.3932C65.6109 58.5959 66.6799 59.5313 67.749 59.5313L70.8224 59.5313C72.025 59.5313 72.9604 58.5959 72.9604 57.3932L72.9604 54.3198C72.9604 53.2508 72.025 52.1818 70.8224 52.1818L69.0852 52.1818C68.818 52.1818 68.6843 52.1818 68.4171 52.1818C66.6799 51.6473 66.2791 51.1127 65.7445 49.5092C65.7445 49.242 65.6109 49.1083 65.6109 48.8411L65.6109 44.9659L65.6109 37.6164L65.6109 33.7412C65.6109 33.6076 65.7445 33.3403 65.7445 33.2067C66.2791 31.4696 66.6799 30.9351 68.4171 30.4005C68.6843 30.4005 68.818 30.4005 69.0852 30.4005L70.8224 30.4005C72.025 30.4005 72.9604 29.4652 72.9604 28.2625L72.9604 23.0511L72.9604 19.1759C72.9604 19.0422 72.9604 18.775 73.094 18.6414C73.4949 16.9042 74.0294 16.3697 75.7666 15.8352C75.9002 15.8352 76.1675 15.8352 76.3011 15.8352L78.1719 15.8352C79.2409 15.8352 80.1763 14.8998 80.1763 13.6972L80.1763 8.4857L80.1763 3.27425C80.1763 2.20523 79.2409 1.26984 78.1719 1.26984L75.0984 1.26984C73.8958 1.26984 72.9604 2.20523 72.9604 3.27425L72.9604 8.4857L72.9604 12.3609C72.9604 12.6281 72.9604 12.7618 72.8268 13.029C72.4259 14.7662 71.8914 15.1671 70.1542 15.7016C70.0206 15.7016 69.7534 15.8352 69.6197 15.8352L67.7489 15.8352C66.6799 15.8352 65.6109 16.7706 65.6109 17.9732L65.6109 23.0511L65.6109 26.9262C65.6109 27.1935 65.6109 27.3271 65.6109 27.5944C65.0764 29.3315 64.5419 29.7324 62.9384 30.2669C62.6711 30.4006 62.5375 30.4005 62.2702 30.4005L60.5331 30.4005C59.3304 30.4005 58.3951 31.3359 58.3951 32.5386L58.3951 37.6164L58.3951 44.9659L58.3951 48.8411C58.3951 49.1083 58.3951 49.242 58.2614 49.5092C57.7269 51.1127 57.326 51.6473 55.5889 52.1818C55.4553 52.1818 55.188 52.1818 55.0544 52.1818L51.0456 52.1818L43.8297 52.1818L39.9545 52.1818C39.6873 52.1818 39.5536 52.1818 39.2864 52.1818C37.5492 51.6473 37.1483 51.1127 36.6138 49.5092C36.4802 49.242 36.4802 49.1083 36.4802 48.8411L36.4802 44.9659L36.4802 37.6164L36.4802 33.7412C36.4802 33.6076 36.4802 33.3403 36.6138 33.2067C37.1483 31.3359 37.6829 30.9351 39.5536 30.4006L41.6917 30.4006C42.8943 30.4006 43.8297 29.4652 43.8297 28.2625L43.8297 23.0511L43.8297 19.1759C43.8297 19.0422 43.8297 18.775 43.8297 18.6414C44.3642 16.9042 44.8987 16.3697 46.6359 15.8352C46.7695 15.8352 47.0367 15.8352 47.1704 15.8352L48.9075 15.8352C50.1102 15.8352 51.0456 14.8998 51.0456 13.6972L51.0456 8.48571L51.0456 3.27425C51.0456 2.20523 50.1102 1.26984 48.9075 1.26984L45.9677 1.26984C44.7651 1.26984 43.8297 2.20523 43.8297 3.27425L43.8297 8.48571L43.8297 12.3609C43.8297 12.6281 43.8297 12.7618 43.6961 13.029C43.1616 14.7662 42.7607 15.1671 41.0235 15.7016C40.7563 15.7016 40.6226 15.8352 40.3554 15.8352L38.6182 15.8352C37.4156 15.8352 36.4802 16.7706 36.4802 17.9732L36.4802 23.0511L36.4802 26.9262C36.4802 27.1935 36.4802 27.4608 36.4802 27.5944C35.9457 29.3315 35.4112 29.7324 33.674 30.2669C33.5404 30.4006 33.2732 30.4006 33.1395 30.4006L31.4024 30.4006C30.1997 30.4006 29.2643 31.3359 29.2643 32.5386L29.2643 37.6164L29.2643 44.9659L29.2643 48.8411C29.2643 49.1083 29.1307 49.242 29.1307 49.5092C28.5962 51.1127 28.1953 51.6473 26.4582 52.1818C26.1909 52.1818 26.0573 52.1818 25.79 52.1818L21.9149 52.1818L14.699 52.1818L10.6902 52.1818C10.5566 52.1818 10.2893 52.1818 10.1557 52.1818C8.41853 51.6473 7.88402 51.1127 7.48313 49.5092C7.34951 49.242 7.34951 49.1083 7.34951 48.8411L7.34951 44.9659L7.34951 37.6164L7.34951 33.7412C7.34951 33.6076 7.34951 33.3403 7.48313 33.2067C8.01764 31.3359 8.55215 30.9351 10.4229 30.4006L12.561 30.4006C13.63 30.4006 14.699 29.4652 14.699 28.2625L14.699 23.0511L14.699 19.1759C14.699 19.0422 14.699 18.775 14.699 18.6414C15.2335 16.7706 15.768 16.3697 17.7724 15.8352L19.7768 15.8352C20.9795 15.8352 21.9149 14.8998 21.9149 13.6972L21.9149 8.48571L21.9149 3.27425C21.9149 2.20523 20.9795 1.26984 19.7768 1.26984L16.7034 1.26985C15.6344 1.26985 14.699 2.20523 14.699 3.27425L14.699 8.48571L14.699 12.3609C14.699 12.6282 14.5654 12.7618 14.5654 13.029C14.0309 14.7662 13.63 15.1671 11.8928 15.7016C11.6256 15.7016 11.4919 15.8352 11.2247 15.8352L9.48753 15.8352C8.28489 15.8352 7.34951 16.7706 7.34951 17.9732L7.34951 23.0511L7.34951 26.9262C7.34951 27.1935 7.34951 27.4608 7.21588 27.5944C6.815 29.3315 6.28048 29.7324 4.54333 30.2669C4.40971 30.4006 4.14246 30.4006 4.00883 30.4006L2.13804 30.4006C1.06903 30.4006 1.34185e-05 31.3359 1.35236e-05 32.5386L1.39675e-05 37.6164L1.461e-05 44.9659L1.50656e-05 50.1774C1.51591e-05 51.2464 1.06904 52.1818 2.13805 52.1818L4.00883 52.1818C4.14246 52.1818 4.40971 52.3154 4.54333 52.3154C6.28049 52.8499 6.815 53.3844 7.21588 54.9879C7.34951 55.2552 7.34951 55.3888 7.34951 55.6561Z" fill="white"/>
<path d="M270.394 8.34949V12.2247C270.394 12.3583 270.394 12.6256 270.394 12.7592C269.859 14.63 269.325 15.0308 267.32 15.5654H265.316C264.113 15.5654 263.178 16.5007 263.178 17.7034V22.9148V26.79C263.178 26.9237 263.178 27.1909 263.044 27.3245C262.51 29.0617 262.109 29.5962 260.372 30.1307C260.104 30.1307 259.971 30.1307 259.704 30.1307H257.966C256.764 30.1307 255.828 31.0661 255.828 32.2687V37.4802V44.6961V48.7049C255.828 48.8385 255.828 49.1058 255.828 49.2394C255.294 50.9765 254.759 51.511 253.022 51.9119C252.889 52.0455 252.621 52.0455 252.488 52.0455H248.613H241.263H234.047H230.038C229.905 52.0455 229.637 52.0455 229.504 51.9119C227.767 51.511 227.232 50.9765 226.831 49.2394C226.698 49.1058 226.698 48.8385 226.698 48.7049V44.6961V40.8209C226.698 40.6872 226.698 40.42 226.831 40.2864C227.366 38.4156 227.9 38.0147 229.771 37.4802H231.909C233.112 37.4802 234.047 36.5448 234.047 35.3422V30.1307V22.9148V19.0397C234.047 18.7724 234.047 18.6388 234.047 18.3715C234.582 16.6344 235.116 16.2335 236.72 15.699C236.987 15.5653 237.121 15.5654 237.388 15.5654H239.125C240.328 15.5654 241.263 14.63 241.263 13.4273V8.34949V3.13803C241.263 1.93539 240.328 1 239.125 1H236.052C234.983 1 234.047 1.93539 234.047 3.13803V8.34949V12.2247C234.047 12.3583 233.914 12.6256 233.914 12.7592C233.379 14.63 232.845 15.0308 230.84 15.5654C230.974 15.5654 230.974 15.5654 230.974 15.5654H228.836C227.633 15.5654 226.698 16.5007 226.698 17.7034V22.9148V30.1307V34.1395C226.698 34.2731 226.698 34.5404 226.564 34.674C226.163 36.4112 225.629 36.8121 223.892 37.3466C223.758 37.4802 223.491 37.4802 223.357 37.4802H221.486C220.417 37.4802 219.482 38.4156 219.482 39.6182V44.6961V49.9075C219.482 51.1102 220.417 52.0455 221.486 52.0455H223.357C223.491 52.0455 223.758 52.0455 223.892 52.1792C225.629 52.5801 226.163 53.1146 226.564 54.8517C226.698 54.9853 226.698 55.2526 226.698 55.3862V57.257C226.698 58.326 227.633 59.2614 228.836 59.2614H234.047H241.263H248.613H253.69C254.893 59.2614 255.828 58.326 255.828 57.257V55.3862C255.828 55.2526 255.828 54.9853 255.962 54.8517C256.497 53.1146 256.897 52.5801 258.635 52.1792C258.902 52.0455 259.035 52.0455 259.303 52.0455H259.704C259.971 52.0455 260.104 52.0455 260.372 52.1792C262.109 52.5801 262.51 53.1146 263.044 54.8517C263.178 54.9853 263.178 55.2526 263.178 55.3862V57.257C263.178 58.326 264.113 59.2614 265.316 59.2614H268.256C269.458 59.2614 270.394 58.326 270.394 57.257V55.3862C270.394 55.2526 270.527 54.9853 270.527 54.8517C271.062 53.1146 271.463 52.5801 273.2 52.1792C273.467 52.0455 273.601 52.0455 273.868 52.0455H275.605C276.808 52.0455 277.743 51.1102 277.743 49.9075V46.8341C277.743 45.6314 276.808 44.6961 275.605 44.6961H272.532C271.329 44.6961 270.394 45.6314 270.394 46.8341V48.7049C270.394 48.8385 270.394 49.1058 270.394 49.2394C269.859 50.9765 269.325 51.511 267.588 51.9119C267.454 52.0455 267.32 52.0455 267.053 52.0455H266.519C266.385 52.0455 266.118 52.0455 265.984 51.9119C264.247 51.511 263.712 50.9765 263.178 49.2394C263.178 49.1058 263.178 48.8385 263.178 48.7049V44.6961V37.4802V33.605C263.178 33.3378 263.178 33.2041 263.178 32.9369C263.712 31.1997 264.247 30.6652 266.251 30.1307H268.256C269.458 30.1307 270.394 29.1953 270.394 27.9927V22.9148V19.0397C270.394 18.7724 270.527 18.6388 270.527 18.3715C271.062 16.6344 271.463 16.2335 273.2 15.699C273.467 15.5653 273.601 15.5654 273.868 15.5654H275.605C276.808 15.5654 277.743 14.63 277.743 13.4273V8.34949V3.13803C277.743 1.93539 276.808 1 275.605 1H272.532C271.329 1 270.394 1.93539 270.394 3.13803V8.34949Z" fill="white"/>
<path d="M323.309 1.99227e-10H324.378C326.81 -2.22922e-05 326.65 1.87076 326.65 2.13801V12.561C326.65 13.6301 325.715 14.5655 324.512 14.5655H322.775C322.641 14.5655 322.374 14.6991 322.24 14.6991C320.503 15.2336 319.969 15.7681 319.434 17.3716V18.0398V19.7769C319.434 20.9796 318.499 21.915 317.296 21.915H315.425C315.425 21.915 315.055 22.0106 314.891 22.0486C313.154 22.4495 312.753 22.984 312.218 24.7211C312.177 24.856 312.085 25.2557 312.085 25.2557V25.7902C312.085 25.7902 312.184 26.3593 312.218 26.4583C312.753 28.1954 313.154 28.5963 314.891 29.1308C315.024 29.1308 315.292 29.2645 315.425 29.2645H317.296C318.499 29.2645 319.434 30.1999 319.434 31.2689V50.1776V50.8458C319.969 52.5829 320.503 52.9838 322.24 53.5183C322.374 53.5183 322.641 53.6519 322.775 53.6519H323.309C323.443 53.6519 323.71 53.5183 323.844 53.5183C325.581 52.9838 326.115 52.5829 326.65 50.8458V50.1776V48.4405C326.65 47.2378 327.585 46.3024 328.788 46.3024H331.861C333.064 46.3024 334 47.2378 334 48.4405V51.5139C334 52.7166 333.064 53.6519 331.861 53.6519H330.124H329.456C327.719 54.1864 327.318 54.721 326.784 56.4581C326.65 56.5917 326.65 56.7254 326.65 56.9926V58.7298C326.65 59.9324 325.715 60.8678 324.512 60.8678H321.572C320.369 60.8678 319.434 59.9324 319.434 58.7298V56.9926C319.434 56.7254 319.3 56.5917 319.3 56.4581C318.766 54.721 318.365 54.1864 316.628 53.6519H315.96H314.223C313.02 53.6519 312.085 52.7166 312.085 51.5139V42.4272C312.085 42.16 312.085 42.0263 311.951 41.7591C311.55 40.1555 311.016 39.6211 309.278 39.0866H308.744H306.873C305.804 39.0866 304.869 38.0178 304.869 36.9488V35.0781C304.869 34.9445 304.735 34.6772 304.735 34.5436C304.201 32.8064 303.8 32.2719 302.063 31.871C301.795 31.7374 301.662 31.7374 301.394 31.7374H300.86C300.726 31.7374 300.459 31.7374 300.325 31.871C298.588 32.2719 298.054 32.8064 297.653 34.5436C297.519 34.6772 297.519 34.9445 297.519 35.0781V58.7298C297.519 59.9324 296.584 60.8678 295.381 60.8678H292.308C291.239 60.8678 290.303 59.9324 290.303 58.7298L290.169 19.3101C290.169 18.1074 291.105 17.172 292.307 17.172H294.044C294.312 17.172 294.445 17.172 294.713 17.0384C296.45 16.6375 296.851 16.103 297.385 14.3659C297.385 14.2322 297.519 13.965 297.519 13.8314V2.13901C297.519 0.961252 298.32 0.301599 301.16 0.301598C304 0.301597 304.735 1.19618 304.735 2.13901V15.034C304.735 16.2366 303.799 17.172 302.597 17.172H300.859C300.592 17.172 300.458 17.172 300.191 17.3057C298.588 17.7066 298.053 18.2411 297.519 19.9782V20.5127V21.0472V21.7154C298.053 23.3189 298.588 23.8534 300.191 24.3879H300.859H306.338C307.011 24.3879 309.512 23.7882 310.514 22.8516C311.516 21.915 312.017 21.0142 312.017 19.3439V17.172C312.017 16.0032 312.853 14.5655 314.189 14.5655H316.628C318.365 14.031 318.766 13.4965 319.3 11.8929C319.3 11.6257 319.434 11.4919 319.434 11.2247V2.13801C319.434 0.93537 320.369 1.99227e-10 321.572 1.99227e-10H323.309Z" fill="white"/>
</svg>
